# xmcd
#
# Track frame offsets: 
#        183
#        12135
#        24798
#        43528
#        71993
#        85220
#        104233
#        120538
#        140820
#        158220
#
# Disc length: 2278 seconds
#
# Revision: 0
# Processed by: cddbd v1.5.1PL2 Copyright (c) Steve Scherf et al.
# Submitted via: ExactAudioCopy v0.95b3
#
DISCID=8508e40a
DTITLE=Ray Charles - SUPER HITS
DYEAR=1900
DGENRE=
TTITLE0=Together Again
TTITLE1=Yesterday
TTITLE2=Baby It's Cold Outside
TTITLE3=I Got A Woman
TTITLE4=Take These Chains From My Heart
TTITLE5=I Can't Stop Loving You
TTITLE6=Georgia On My Mind
TTITLE7=What'd I Say
TTITLE8=Ruby
TTITLE9=Unchain My Heart
EXTD=
EXTT0=
EXTT1=
EXTT2=
EXTT3=
EXTT4=
EXTT5=
EXTT6=
EXTT7=
EXTT8=
EXTT9=
PLAYORDER=
